<svg width="500" height="500" viewBox="0 0 500 500" fill="none" xmlns="http://www.w3.org/2000/svg">
<path d="M150 229.13L31.6 297.5C29.1 298.95 29.1 301.29 31.6 302.73L306.31 461.52C309.26 463.038 312.645 463.49 315.89 462.8C368.03 448.52 408.77 424.19 434.89 394.52C435.337 394.048 435.668 393.478 435.856 392.855C436.044 392.233 436.085 391.575 435.974 390.934C435.863 390.294 435.605 389.687 435.219 389.164C434.832 388.641 434.33 388.215 433.75 387.92L159.09 229.13C157.683 228.412 156.125 228.037 154.545 228.037C152.965 228.037 151.407 228.412 150 229.13V229.13Z" fill="#EBEBEB"/>
<path d="M113.75 396.73C133.152 396.73 148.88 387.65 148.88 376.45C148.88 365.25 133.152 356.17 113.75 356.17C94.3482 356.17 78.62 365.25 78.62 376.45C78.62 387.65 94.3482 396.73 113.75 396.73Z" fill="#EBEBEB"/>
<path d="M396.91 275C383.91 282.5 383.91 294.66 396.91 302.16C409.91 309.66 430.91 309.66 443.91 302.16C456.91 294.66 456.91 282.5 443.91 275C430.91 267.5 409.89 267.5 396.91 275Z" fill="#EBEBEB"/>
<path d="M438 211.42L435.38 210.09L422.87 238V204.49H418V231.49L405.25 207.54L402.76 209.09L418 237.09V287.91C418.018 288.126 418.095 288.333 418.222 288.509C418.349 288.686 418.521 288.824 418.72 288.91C419.257 289.186 419.851 289.33 420.455 289.33C421.059 289.33 421.653 289.186 422.19 288.91C422.387 288.822 422.556 288.682 422.681 288.507C422.806 288.331 422.881 288.125 422.9 287.91V244.5L438 211.42Z" fill="#115A21"/>
<path d="M483.24 187.363C488.014 167.137 475.487 146.87 455.26 142.096C435.033 137.322 414.766 149.849 409.992 170.075C405.218 190.302 417.745 210.569 437.972 215.343C458.199 220.117 478.466 207.59 483.24 187.363Z" fill="#4DB069"/>
<path d="M458.43 169.11C463.28 153.82 468.43 147.84 465.17 145.98C458.936 142.454 451.825 140.78 444.673 141.155C437.52 141.53 430.623 143.938 424.792 148.097C418.961 152.256 414.438 157.993 411.754 164.634C409.071 171.274 408.338 178.543 409.642 185.585C410.946 192.628 414.233 199.152 419.117 204.391C424 209.63 430.278 213.367 437.212 215.162C444.145 216.957 451.447 216.736 458.26 214.525C465.072 212.314 471.112 208.205 475.67 202.68C464.52 205.94 452.14 188.93 458.43 169.11Z" fill="#115A21"/>
<path d="M413.8 189.38C413.8 194.611 412.249 199.725 409.342 204.075C406.436 208.425 402.305 211.815 397.472 213.817C392.639 215.819 387.321 216.342 382.19 215.322C377.059 214.301 372.346 211.782 368.647 208.083C364.948 204.384 362.429 199.671 361.408 194.54C360.388 189.409 360.911 184.091 362.913 179.258C364.915 174.425 368.306 170.294 372.655 167.388C377.005 164.481 382.119 162.93 387.35 162.93C394.365 162.93 401.093 165.717 406.053 170.677C411.013 175.637 413.8 182.365 413.8 189.38V189.38Z" fill="#4DB069"/>
<path d="M387.35 162.93C381.799 162.928 376.389 164.678 371.89 167.93C371.17 184.09 384.89 199.85 381.06 205.14C377.23 210.43 367.78 207.19 364.49 202.69C366.823 206.7 370.169 210.026 374.194 212.334C378.218 214.642 382.779 215.851 387.419 215.84C392.058 215.828 396.613 214.597 400.626 212.269C404.639 209.941 407.969 206.598 410.282 202.576C412.595 198.554 413.809 193.995 413.803 189.356C413.797 184.716 412.571 180.16 410.247 176.144C407.924 172.129 404.585 168.795 400.566 166.477C396.547 164.159 391.989 162.939 387.35 162.94V162.93Z" fill="#115A21"/>
<path d="M469 160.86C469.002 170.459 466.157 179.843 460.826 187.825C455.495 195.807 447.916 202.028 439.049 205.703C430.181 209.378 420.423 210.34 411.008 208.469C401.594 206.597 392.946 201.976 386.158 195.189C379.37 188.403 374.747 179.756 372.873 170.341C371 160.927 371.96 151.169 375.633 142.301C379.306 133.432 385.526 125.852 393.507 120.519C401.488 115.186 410.871 112.34 420.47 112.34C433.339 112.34 445.682 117.452 454.782 126.551C463.883 135.65 468.997 147.991 469 160.86V160.86Z" fill="#4DB069"/>
<path d="M467.66 172C465.961 179.237 462.622 185.986 457.9 191.728C453.179 197.47 447.201 202.05 440.429 205.114C433.656 208.179 426.27 209.647 418.841 209.404C411.411 209.162 404.137 207.215 397.579 203.715C391.021 200.215 385.355 195.255 381.018 189.217C376.681 183.18 373.789 176.227 372.566 168.895C371.343 161.562 371.82 154.047 373.962 146.929C376.105 139.81 379.853 133.28 384.92 127.84C388.29 124.22 388.5 124.07 385.18 127.57C384.336 131.203 383.906 134.92 383.9 138.65C383.895 148.362 386.806 157.852 392.255 165.892C397.705 173.931 405.442 180.15 414.465 183.742C423.489 187.335 433.383 188.137 442.867 186.043C452.351 183.95 460.988 179.057 467.66 172V172Z" fill="#508D53"/>
<path d="M109.18 302.67C109.257 305.805 108.667 308.92 107.45 311.81V311.81C106.536 313.957 104.982 315.769 103 317L102.85 317.09L91.71 323.51L87.19 314.51L86.88 313.91C84.3379 311.927 82.0683 309.617 80.13 307.04C79.63 306.41 79.13 305.76 78.71 305.09C75.9332 301.058 73.7697 296.637 72.29 291.97C71.1394 288.441 70.4864 284.769 70.35 281.06L70.27 280.91L69.13 278.65L66.7 274L65.7 272L75.63 266.25L76.3 265.86L76.58 265.7C78.104 264.836 79.8282 264.388 81.58 264.4C84.4519 264.497 87.2483 265.345 89.69 266.86C100.47 273.13 109.18 289.14 109.18 302.67Z" fill="#263238"/>
<path d="M59 286.74C59 298.41 65.48 311.92 74.15 319.39C75.4736 320.535 76.8996 321.556 78.41 322.44C89.16 328.66 97.88 322.71 97.87 309.17C97.87 298.95 92.87 287.3 85.87 279.55C85.87 279.55 85.87 279.55 85.81 279.49C83.6804 277.106 81.1983 275.062 78.45 273.43C67.66 267.27 59 273.21 59 286.74Z" fill="#37474F"/>
<path d="M78.4 281.64C71.57 277.69 66.02 281.8 66.02 290.83C66.02 299.86 71.57 310.37 78.4 314.32C85.23 318.27 90.79 314.15 90.79 305.13C90.79 296.11 85.24 285.59 78.4 281.64Z" fill="#455A64"/>
<path d="M59 286.74C59 298.41 65.48 311.92 74.15 319.39C68.1287 312.571 63.8893 304.367 61.81 295.51C60.16 287.71 60.81 276.51 67.48 273.68C74.15 270.85 83.02 276.81 85.81 279.53C83.6804 277.146 81.1983 275.102 78.45 273.47C67.66 267.27 59 273.21 59 286.74Z" fill="#455A64"/>
<path d="M78.4 289.5C74.85 287.45 71.98 289.58 71.98 294.27C71.98 298.96 74.85 304.41 78.4 306.46C81.95 308.51 84.83 306.37 84.83 301.69C84.83 297.01 82 291.55 78.4 289.5Z" fill="#E0E0E0"/>
<path d="M76.35 289.41C75.91 289.153 75.435 288.961 74.94 288.84C73.16 289.32 71.94 291.27 71.94 294.27C72.0544 297.826 73.3372 301.246 75.59 304C75.8322 304.189 76.086 304.363 76.35 304.52C79.51 306.34 82.06 304.45 82.06 300.28C82.06 296.11 79.51 291.24 76.35 289.41Z" fill="#F5F5F5"/>
<path d="M64.83 259.26V263.98L203.74 344.18V339.46L64.83 259.26Z" fill="#455A64"/>
<path d="M107.7 288.74L100.11 284.35V310.14C100.11 311.53 101.11 312.09 102.28 311.39L108.28 307.94L107.71 307.6L107.7 288.74Z" fill="#CB2F40"/>
<path opacity="0.7" d="M107.7 288.74L100.11 284.35V310.14C100.11 311.53 101.11 312.09 102.28 311.39L108.28 307.94L107.71 307.6L107.7 288.74Z" fill="white"/>
<path d="M107.7 288.74V302.89L142.45 322.95V308.8L107.7 288.74Z" fill="#37474F"/>
<path d="M142.45 322.95L107.7 302.89L105.68 304.09L142.45 325.29V322.95Z" fill="#263238"/>
<path d="M105.69 306.45V304.1L142.45 325.29V327.67L105.69 306.45Z" fill="#455A64"/>
<path d="M142.45 304.08V332.39L171.05 348.9V320.59L142.45 304.08Z" fill="#37474F"/>
<path d="M171.05 320.59V348.9L199.65 365.41V337.11L171.05 320.59Z" fill="#37474F"/>
<path d="M199.65 365.41L207.82 360.69V337.1L203.74 339.46L199.65 337.11V365.41Z" fill="#263238"/>
<path d="M170.02 348.3V320L172.06 321.18V349.48L170.02 348.3Z" fill="#263238"/>
<path d="M184.32 337.69V332.97L186.36 334.15L186.37 338.87L184.32 337.69Z" fill="#E0E0E0"/>
<path d="M155.72 321.19V316.47L157.76 317.64L157.77 322.37L155.72 321.19Z" fill="#E0E0E0"/>
<path opacity="0.2" d="M140.36 302.87V321.75L138.37 322.94V325.31L142.45 327.67V304.08L140.36 302.87Z" fill="black"/>
<path d="M56.66 254.55L203.74 339.46L203.75 330.06L56.66 245.15V254.55Z" fill="#CB2F40"/>
<g opacity="0.6">
<path opacity="0.6" d="M56.66 254.55L203.74 339.46L203.75 330.06L56.66 245.15V254.55Z" fill="white"/>
</g>
<path d="M203.74 339.46L207.82 337.1V327.67L203.74 330.03V339.46Z" fill="#CB2F40"/>
<g opacity="0.5">
<path opacity="0.5" d="M203.74 339.46L207.82 337.1V327.67L203.74 330.03V339.46Z" fill="white"/>
</g>
<g opacity="0.1">
<path opacity="0.1" d="M203.74 339.46L207.82 337.1V327.67L203.74 330.03V339.46Z" fill="black"/>
</g>
<path d="M158.8 186.14L56.66 245.15L203.74 330.03L305.88 271.06L158.8 186.14Z" fill="#CB2F40"/>
<g opacity="0.8">
<path opacity="0.8" d="M158.8 186.14L56.66 245.15L203.74 330.03L305.88 271.06L158.8 186.14Z" fill="white"/>
</g>
<path d="M68.91 129.53L199.65 205.01L293.62 150.76L162.88 75.28L68.91 129.53Z" fill="#455A64"/>
<path d="M199.65 322.95V205.01L68.91 129.53V247.47L199.65 322.95Z" fill="#37474F"/>
<path d="M199.65 322.95L293.62 268.7V150.76L199.65 205.01V322.95Z" fill="#263238"/>
<path d="M161.91 286.74C161.171 286.222 160.566 285.536 160.145 284.737C159.724 283.939 159.5 283.052 159.49 282.15V275.15L164.41 278.04L164.73 277.98V278.45V284.73C164.765 285.142 164.691 285.555 164.516 285.929C164.34 286.303 164.069 286.624 163.73 286.86C163.494 286.99 163.229 287.059 162.96 287.06C162.589 287.042 162.228 286.932 161.91 286.74V286.74ZM162.46 279.18L162.1 281.64H160.28V282.15C160.294 282.911 160.481 283.659 160.828 284.336C161.174 285.014 161.671 285.603 162.28 286.06C162.432 286.168 162.61 286.236 162.795 286.255C162.981 286.274 163.169 286.245 163.34 286.17C163.55 285.998 163.712 285.776 163.812 285.524C163.912 285.272 163.946 284.999 163.91 284.73V278.91L162.46 279.18ZM161.76 278.5L163.21 278.24L160.28 276.51V280.85H161.42L161.76 278.5Z" fill="#E0E0E0"/>
<path d="M162.11 292.07C162.162 292.07 162.214 292.06 162.262 292.039C162.31 292.019 162.353 291.99 162.389 291.952C162.426 291.915 162.454 291.871 162.473 291.822C162.492 291.774 162.501 291.722 162.5 291.67V286.4C162.5 286.297 162.459 286.197 162.386 286.124C162.313 286.051 162.213 286.01 162.11 286.01C162.007 286.01 161.907 286.051 161.834 286.124C161.761 286.197 161.72 286.297 161.72 286.4V291.67C161.719 291.722 161.728 291.774 161.747 291.822C161.766 291.871 161.794 291.915 161.831 291.952C161.867 291.99 161.91 292.019 161.958 292.039C162.006 292.06 162.058 292.07 162.11 292.07V292.07Z" fill="#E0E0E0"/>
<path d="M164.4 293.39C164.47 293.391 164.538 293.373 164.598 293.338C164.658 293.302 164.707 293.251 164.74 293.19C164.767 293.146 164.785 293.096 164.792 293.045C164.8 292.993 164.797 292.941 164.784 292.891C164.771 292.84 164.748 292.793 164.716 292.752C164.685 292.71 164.645 292.676 164.6 292.65L160 290C159.957 289.972 159.908 289.953 159.857 289.945C159.806 289.937 159.754 289.939 159.704 289.953C159.654 289.966 159.607 289.989 159.567 290.022C159.527 290.054 159.494 290.094 159.47 290.14C159.443 290.184 159.425 290.234 159.418 290.285C159.41 290.337 159.413 290.389 159.426 290.439C159.439 290.49 159.462 290.537 159.494 290.578C159.525 290.62 159.565 290.654 159.61 290.68L164.2 293.33C164.261 293.365 164.33 293.386 164.4 293.39V293.39Z" fill="#E0E0E0"/>
<path d="M178.15 301.54C178.301 301.544 178.45 301.506 178.58 301.43C178.739 301.332 178.868 301.19 178.951 301.022C179.034 300.854 179.069 300.666 179.05 300.48V299.4C179.035 299.306 178.987 299.22 178.915 299.159C178.842 299.097 178.75 299.063 178.655 299.063C178.56 299.063 178.468 299.097 178.395 299.159C178.323 299.22 178.275 299.306 178.26 299.4V300.48C178.26 300.64 178.26 300.73 178.18 300.75C178.091 300.761 178.001 300.735 177.93 300.68C177.685 300.452 177.493 300.174 177.365 299.866C177.237 299.557 177.178 299.224 177.19 298.89V291.89C177.191 291.838 177.182 291.786 177.163 291.738C177.144 291.689 177.116 291.645 177.079 291.608C177.043 291.57 177 291.541 176.952 291.521C176.904 291.5 176.852 291.49 176.8 291.49C176.694 291.49 176.592 291.532 176.517 291.607C176.442 291.682 176.4 291.784 176.4 291.89V298.89C176.38 299.361 176.47 299.83 176.665 300.259C176.86 300.688 177.152 301.065 177.52 301.36C177.711 301.473 177.928 301.535 178.15 301.54V301.54Z" fill="#E0E0E0"/>
<path d="M171.81 289.35V289.12C171.69 288.444 171.78 287.748 172.07 287.125C172.36 286.503 172.834 285.985 173.429 285.642C174.023 285.299 174.709 285.147 175.393 285.208C176.076 285.268 176.725 285.538 177.25 285.98C178.721 286.938 179.945 288.23 180.823 289.75C181.7 291.271 182.206 292.977 182.3 294.73V295.41L171.81 289.35ZM173.81 286.35C173.406 286.64 173.082 287.028 172.868 287.478C172.655 287.927 172.559 288.423 172.59 288.92L181.47 294.05C181.274 292.563 180.76 291.136 179.963 289.866C179.166 288.596 178.104 287.513 176.85 286.69C176.248 286.316 175.558 286.105 174.85 286.08C174.492 286.073 174.138 286.155 173.82 286.32L173.81 286.35Z" fill="#E0E0E0"/>
<path d="M194 310.4C194.052 310.4 194.104 310.39 194.152 310.369C194.2 310.349 194.243 310.32 194.279 310.282C194.316 310.245 194.344 310.201 194.363 310.152C194.382 310.104 194.391 310.052 194.39 310V296.57C194.391 296.518 194.382 296.466 194.363 296.418C194.344 296.369 194.316 296.325 194.279 296.288C194.243 296.25 194.2 296.221 194.152 296.201C194.104 296.18 194.052 296.17 194 296.17C193.894 296.17 193.792 296.212 193.717 296.287C193.642 296.362 193.6 296.464 193.6 296.57V310C193.6 310.106 193.642 310.208 193.717 310.283C193.792 310.358 193.894 310.4 194 310.4V310.4Z" fill="#E0E0E0"/>
<path d="M195.17 299.63C195.223 299.641 195.277 299.641 195.33 299.63C195.378 299.609 195.421 299.58 195.457 299.542C195.492 299.505 195.521 299.46 195.539 299.412C195.558 299.364 195.567 299.312 195.565 299.26C195.563 299.208 195.552 299.157 195.53 299.11L194.13 295.86L192.56 297.68C192.492 297.76 192.459 297.863 192.468 297.967C192.476 298.071 192.525 298.167 192.605 298.235C192.685 298.303 192.788 298.336 192.892 298.327C192.996 298.319 193.092 298.27 193.16 298.19L193.9 297.33L194.81 299.42C194.844 299.485 194.896 299.54 194.96 299.577C195.023 299.614 195.096 299.633 195.17 299.63V299.63Z" fill="#E0E0E0"/>
<path d="M190.37 308.32C190.474 308.317 190.573 308.274 190.646 308.199C190.719 308.125 190.76 308.024 190.76 307.92V294.49C190.769 294.433 190.766 294.374 190.75 294.319C190.734 294.263 190.707 294.211 190.669 294.167C190.632 294.123 190.585 294.088 190.533 294.064C190.48 294.04 190.423 294.027 190.365 294.027C190.307 294.027 190.25 294.04 190.197 294.064C190.145 294.088 190.098 294.123 190.061 294.167C190.023 294.211 189.996 294.263 189.98 294.319C189.964 294.374 189.961 294.433 189.97 294.49V307.92C189.97 308.026 190.012 308.128 190.087 308.203C190.162 308.278 190.264 308.32 190.37 308.32V308.32Z" fill="#E0E0E0"/>
<path d="M191.52 297.55C191.573 297.56 191.627 297.56 191.68 297.55C191.728 297.529 191.771 297.5 191.807 297.462C191.842 297.425 191.871 297.38 191.889 297.332C191.908 297.284 191.917 297.232 191.915 297.18C191.913 297.128 191.902 297.077 191.88 297.03L190.48 293.78L188.91 295.59C188.856 295.671 188.833 295.769 188.846 295.866C188.858 295.963 188.906 296.051 188.98 296.115C189.054 296.179 189.148 296.214 189.246 296.213C189.344 296.212 189.437 296.175 189.51 296.11L190.25 295.25L191.16 297.34C191.194 297.405 191.246 297.46 191.31 297.497C191.373 297.534 191.446 297.553 191.52 297.55V297.55Z" fill="#E0E0E0"/>
<path d="M111.07 239.24V260.87C111.07 261.7 110.48 262.04 109.76 261.62L75.9999 242.12C75.6178 241.874 75.2997 241.541 75.0718 241.148C74.844 240.755 74.7131 240.314 74.6899 239.86V218.22C74.6899 217.38 75.2799 217.05 75.9999 217.46L109.77 237C110.146 237.247 110.459 237.577 110.685 237.966C110.911 238.355 111.042 238.791 111.07 239.24V239.24Z" fill="#FAFAFA"/>
<path d="M76.78 220.56L77.87 221.19V240.85L76.78 240.22V220.56Z" fill="#455A64"/>
<path d="M81.22 223.12L83.1 224.23V243.89L81.22 242.79V223.12Z" fill="#455A64"/>
<path d="M85.66 225.68L86.75 226.31V245.98L85.66 245.35V225.68Z" fill="#455A64"/>
<path d="M89.0099 227.58L91.1899 228.88V248.54L89.0099 247.25V227.58Z" fill="#455A64"/>
<path d="M94.54 230.81L95.63 231.44V251.1L94.54 250.47V230.81Z" fill="#455A64"/>
<path d="M97.73 232.61L100.07 234V253.66L97.73 252.28V232.61Z" fill="#455A64"/>
<path d="M103.42 235.93L104.51 236.56L104.5 256.23L103.42 255.59V235.93Z" fill="#455A64"/>
<path d="M105.95 237.37L106.49 237.69V257.35L105.95 257.04V237.37Z" fill="#455A64"/>
<path d="M101.39 234.86L101.94 235.17V254.84L101.39 254.52V234.86Z" fill="#455A64"/>
<path d="M92.45 229.62L93 229.94V249.6L92.45 249.29V229.62Z" fill="#455A64"/>
<path d="M87.55 226.81L88.1 227.13V246.79L87.55 246.48V226.81Z" fill="#455A64"/>
<path d="M84.04 224.87L84.58 225.19V244.85L84.03 244.53L84.04 224.87Z" fill="#455A64"/>
<path d="M79.27 221.97L79.81 222.29V241.95L79.27 241.64V221.97Z" fill="#455A64"/>
<path d="M107.86 238.49L108.94 239.12V258.79L107.85 258.16L107.86 238.49Z" fill="#455A64"/>
<path d="M142.45 289.93V171.99L126.11 162.55V280.49L142.45 289.93Z" fill="#CB2F40"/>
<g opacity="0.3">
<path opacity="0.3" d="M142.45 289.93V171.99L126.11 162.55V280.49L142.45 289.93Z" fill="black"/>
</g>
<path d="M238.48 300.54V182.6L254.82 173.16V291.1L238.48 300.54Z" fill="#CB2F40"/>
<g opacity="0.45">
<path opacity="0.45" d="M238.48 300.54V182.6L254.82 173.16V291.1L238.48 300.54Z" fill="black"/>
</g>
<path d="M126.11 162.55L220.08 108.3L236.42 117.73L142.45 171.99L126.11 162.55Z" fill="#CB2F40"/>
<g opacity="0.15">
<path opacity="0.15" d="M126.11 162.55L220.08 108.3L236.42 117.73L142.45 171.99L126.11 162.55Z" fill="black"/>
</g>
<g opacity="0.15">
<path opacity="0.15" d="M161.95 141.86L178.37 151.25L181.27 149.58L164.93 140.14L161.95 141.86Z" fill="black"/>
</g>
<path d="M254.82 173.16L124.06 97.69L107.72 107.12L238.48 182.6L254.82 173.16Z" fill="#CB2F40"/>
<g opacity="0.15">
<path opacity="0.15" d="M254.82 173.16L124.06 97.69L107.72 107.12L238.48 182.6L254.82 173.16Z" fill="black"/>
</g>
<path opacity="0.2" d="M188.44 139C188.44 139 211.64 159.26 249.53 154.87C249.53 154.87 234.07 165.87 214.38 163.52C214.38 163.52 216.86 174.42 232.19 180.32C232.19 180.32 188.68 179.68 181.06 143.95L188.44 139Z" fill="black"/>
<path d="M187.47 136.91C187.47 136.91 210.67 156.17 248.56 151.78C248.56 151.78 232.48 162.31 212.79 159.93C212.79 159.93 215.61 167.11 232.19 175.86C232.19 175.86 190.78 176.23 180.08 141.86L187.47 136.91Z" fill="#CB2F40"/>
<path opacity="0.25" d="M187.47 136.91C187.47 136.91 210.67 156.17 248.56 151.78C248.56 151.78 232.48 162.31 212.79 159.93C212.79 159.93 215.61 167.11 232.19 175.86C232.19 175.86 190.78 176.23 180.08 141.86L187.47 136.91Z" fill="white"/>
<path opacity="0.1" d="M185.84 146.62C194 148.79 202.09 145.27 202.09 145.27L200.57 144.6L200.34 144.49L198.99 143.86L198.69 143.71L197.46 143.1L197.15 142.95L196.03 142.36L195.72 142.19L194.72 141.63C194.627 141.571 194.53 141.517 194.43 141.47L193.49 140.92L193.23 140.77L192.37 140.25L192.13 140.1L191.36 139.63L191.14 139.48L190.47 139.04L190.27 138.91L189.69 138.52L189.51 138.4L189.03 138.06L188.87 137.95L188.48 137.66L188.35 137.56L188.05 137.35L187.92 137.24L187.75 137.11L187.63 137.01H187.56L187.5 136.96L185.08 138.58L180.08 141.9C190.78 176.28 232.18 175.9 232.19 175.9C210.88 174.87 188.5 158.7 185.84 146.62Z" fill="black"/>
<path d="M238.91 111.71C238.91 111.71 234.3 106.33 220.17 108.76C211.64 110.23 197.17 120.17 190.01 136.76C189.1 138.86 187.07 139.56 186.01 140.97C185.759 141.287 185.485 141.584 185.19 141.86H180.72C180.72 126.4 189.39 110.79 197.6 101.76C205.81 92.73 219.31 88.31 228.95 87.94C232.367 87.7861 235.773 88.4405 238.89 89.85C241.49 97.19 242.57 104.44 238.91 111.71Z" fill="#CB2F40"/>
<path opacity="0.5" d="M238.91 111.71C238.91 111.71 234.3 106.33 220.17 108.76C211.64 110.23 197.17 120.17 190.01 136.76C189.1 138.86 187.07 139.56 186.01 140.97C185.759 141.287 185.485 141.584 185.19 141.86H180.72C180.72 126.4 189.39 110.79 197.6 101.76C205.81 92.73 219.31 88.31 228.95 87.94C232.367 87.7861 235.773 88.4405 238.89 89.85C241.49 97.19 242.57 104.44 238.91 111.71Z" fill="white"/>
<path opacity="0.3" d="M191 134.64C191 134.64 182.95 131.92 186.27 119.03C182.798 126.151 180.909 133.94 180.73 141.86H185.2C185.495 141.584 185.769 141.287 186.02 140.97C187.11 139.56 189.14 138.86 190.02 136.76C190.31 136 190.65 135.33 191 134.64Z" fill="#CB2F40"/>
<path opacity="0.1" d="M191 134.64C191 134.64 182.95 131.92 186.27 119.03C182.798 126.151 180.909 133.94 180.73 141.86H185.2C185.495 141.584 185.769 141.287 186.02 140.97C187.11 139.56 189.14 138.86 190.02 136.76C190.31 136 190.65 135.33 191 134.64Z" fill="black"/>
<path opacity="0.3" d="M238.91 111.71C238.91 111.71 239.62 94.71 228.91 87.94C232.327 87.7861 235.733 88.4405 238.85 89.85C241.49 97.19 242.57 104.44 238.91 111.71Z" fill="#CB2F40"/>
<path opacity="0.1" d="M238.91 111.71C238.91 111.71 239.62 94.71 228.91 87.94C232.327 87.7861 235.733 88.4405 238.85 89.85C241.49 97.19 242.57 104.44 238.91 111.71Z" fill="black"/>
<path d="M230.66 121.62C234.05 118.902 236.856 115.528 238.91 111.7C242.58 104.43 241.49 97.18 238.91 89.84C247.2 93.51 252.15 104.28 254.04 112.96C255.04 117.82 255.16 122.06 254.34 124.01C252.02 129.48 238.4 151.59 180.12 141.85L180.19 135.73C194.73 134.85 220.22 130.41 230.66 121.62Z" fill="#CB2F40"/>
<path opacity="0.4" d="M230.66 121.62C234.05 118.902 236.856 115.528 238.91 111.7C242.58 104.43 241.49 97.18 238.91 89.84C247.2 93.51 252.15 104.28 254.04 112.96C255.04 117.82 255.16 122.06 254.34 124.01C252.02 129.48 238.4 151.59 180.12 141.85L180.19 135.73C194.73 134.85 220.22 130.41 230.66 121.62Z" fill="white"/>
<path opacity="0.2" d="M174.13 139C174.13 139 150.93 159.26 113.04 154.87C113.04 154.87 128.5 165.87 148.19 163.52C148.19 163.52 145.71 174.42 130.38 180.32C130.38 180.32 173.89 179.68 181.51 143.95L174.13 139Z" fill="black"/>
<path d="M175.1 136.91C175.1 136.91 151.9 156.17 114 151.78C114 151.78 130.08 162.31 149.77 159.93C149.77 159.93 146.95 167.11 130.37 175.86C130.37 175.86 171.78 176.23 182.48 141.86L175.1 136.91Z" fill="#CB2F40"/>
<path opacity="0.25" d="M175.1 136.91C175.1 136.91 151.9 156.17 114 151.78C114 151.78 130.08 162.31 149.77 159.93C149.77 159.93 146.95 167.11 130.37 175.86C130.37 175.86 171.78 176.23 182.48 141.86L175.1 136.91Z" fill="white"/>
<path opacity="0.1" d="M176.74 146.62C168.57 148.79 160.48 145.27 160.48 145.27L162 144.6L162.23 144.49L163.58 143.86L163.88 143.71L165.11 143.1L165.42 142.95L166.55 142.36L166.85 142.19L167.85 141.63L168.14 141.47L169.08 140.92L169.34 140.77L170.2 140.25L170.44 140.1L171.21 139.63L171.43 139.48L172.1 139.04L172.3 138.91L172.88 138.52L173.06 138.4L173.55 138.06L173.7 137.95L174.09 137.66L174.22 137.56L174.52 137.35L174.65 137.24L174.82 137.11L174.94 137.01H175.01L175.07 136.96L177.49 138.58L182.49 141.9C171.79 176.28 130.39 175.9 130.38 175.9C151.69 174.87 174.07 158.7 176.74 146.62Z" fill="black"/>
<path d="M123.67 111.71C123.67 111.71 128.27 106.33 142.4 108.76C150.93 110.23 165.4 120.17 172.57 136.76C173.47 138.86 175.5 139.56 176.57 140.97C176.821 141.287 177.095 141.584 177.39 141.86H181.86C181.86 126.4 173.19 110.79 164.98 101.76C156.77 92.73 143.27 88.31 133.63 87.94C130.213 87.7861 126.807 88.4405 123.69 89.85C121.08 97.19 120 104.44 123.67 111.71Z" fill="#CB2F40"/>
<path opacity="0.5" d="M123.67 111.71C123.67 111.71 128.27 106.33 142.4 108.76C150.93 110.23 165.4 120.17 172.57 136.76C173.47 138.86 175.5 139.56 176.57 140.97C176.821 141.287 177.095 141.584 177.39 141.86H181.86C181.86 126.4 173.19 110.79 164.98 101.76C156.77 92.73 143.27 88.31 133.63 87.94C130.213 87.7861 126.807 88.4405 123.69 89.85C121.08 97.19 120 104.44 123.67 111.71Z" fill="white"/>
<path opacity="0.3" d="M171.59 134.64C171.59 134.64 179.59 131.92 176.32 119.03C179.791 126.151 181.681 133.94 181.86 141.86H177.39C177.095 141.584 176.821 141.287 176.57 140.97C175.48 139.56 173.45 138.86 172.57 136.76C172.26 136 171.92 135.33 171.59 134.64Z" fill="#CB2F40"/>
<path opacity="0.1" d="M171.59 134.64C171.59 134.64 179.59 131.92 176.32 119.03C179.791 126.151 181.681 133.94 181.86 141.86H177.39C177.095 141.584 176.821 141.287 176.57 140.97C175.48 139.56 173.45 138.86 172.57 136.76C172.26 136 171.92 135.33 171.59 134.64Z" fill="black"/>
<path opacity="0.3" d="M123.67 111.71C123.67 111.71 122.95 94.71 133.67 87.94C130.253 87.7861 126.847 88.4405 123.73 89.85C121.08 97.19 120 104.44 123.67 111.71Z" fill="#CB2F40"/>
<path opacity="0.1" d="M123.67 111.71C123.67 111.71 122.95 94.71 133.67 87.94C130.253 87.7861 126.847 88.4405 123.73 89.85C121.08 97.19 120 104.44 123.67 111.71Z" fill="black"/>
<path d="M131.91 121.62C128.52 118.902 125.714 115.528 123.66 111.7C119.99 104.43 121.08 97.18 123.66 89.84C115.36 93.51 110.41 104.28 108.53 112.96C107.53 117.82 107.4 122.06 108.22 124.01C110.54 129.48 124.16 151.59 182.44 141.85L182.38 135.73C167.84 134.85 142.35 130.41 131.91 121.62Z" fill="#CB2F40"/>
<path opacity="0.4" d="M131.91 121.62C128.52 118.902 125.714 115.528 123.66 111.7C119.99 104.43 121.08 97.18 123.66 89.84C115.36 93.51 110.41 104.28 108.53 112.96C107.53 117.82 107.4 122.06 108.22 124.01C110.54 129.48 124.16 151.59 182.44 141.85L182.38 135.73C167.84 134.85 142.35 130.41 131.91 121.62Z" fill="white"/>
<path d="M189.26 137.82C189.197 137.23 188.979 136.668 188.628 136.19C188.276 135.712 187.804 135.336 187.26 135.1C185.336 134.419 183.298 134.124 181.26 134.23C179.153 134.127 177.047 134.468 175.08 135.23C174.579 135.476 174.15 135.846 173.831 136.305C173.513 136.763 173.316 137.295 173.26 137.85C173.05 139.69 172.92 142.79 174.13 144.54C176.116 146.247 178.662 147.162 181.28 147.11C183.887 147.168 186.422 146.251 188.39 144.54C189.59 142.75 189.47 139.66 189.26 137.82Z" fill="#CB2F40"/>
<path opacity="0.5" d="M189.26 137.82C189.197 137.23 188.979 136.668 188.628 136.19C188.276 135.712 187.804 135.336 187.26 135.1C185.336 134.419 183.298 134.124 181.26 134.23C179.153 134.127 177.047 134.468 175.08 135.23C174.579 135.476 174.15 135.846 173.831 136.305C173.513 136.763 173.316 137.295 173.26 137.85C173.05 139.69 172.92 142.79 174.13 144.54C176.116 146.247 178.662 147.162 181.28 147.11C183.887 147.168 186.422 146.251 188.39 144.54C189.59 142.75 189.47 139.66 189.26 137.82Z" fill="white"/>
<path opacity="0.3" d="M189.38 140.71C189.38 141.43 188.58 142.58 187.02 143.71C185.706 144.47 184.236 144.921 182.722 145.028C181.207 145.136 179.688 144.897 178.28 144.33C176.992 143.953 175.833 143.227 174.933 142.231C174.032 141.235 173.426 140.01 173.18 138.69C173.04 140.53 173.09 143.02 174.13 144.53C176.116 146.237 178.662 147.152 181.28 147.1C183.887 147.158 186.422 146.241 188.39 144.53C189.058 143.369 189.4 142.049 189.38 140.71Z" fill="#CB2F40"/>
<path opacity="0.1" d="M189.38 140.71C189.38 141.43 188.58 142.58 187.02 143.71C185.706 144.47 184.236 144.921 182.722 145.028C181.207 145.136 179.688 144.897 178.28 144.33C176.992 143.953 175.833 143.227 174.933 142.231C174.032 141.235 173.426 140.01 173.18 138.69C173.04 140.53 173.09 143.02 174.13 144.53C176.116 146.237 178.662 147.152 181.28 147.1C183.887 147.158 186.422 146.241 188.39 144.53C189.058 143.369 189.4 142.049 189.38 140.71Z" fill="black"/>
<path d="M396.2 250.37L403.72 246C403.971 245.817 404.267 245.705 404.577 245.675C404.886 245.645 405.198 245.698 405.48 245.83C405.92 246.09 406.81 246.63 407.25 246.83C407.506 247.007 407.71 247.251 407.84 247.534C407.97 247.817 408.022 248.13 407.99 248.44V266.5C407.943 267.358 407.694 268.194 407.263 268.938C406.832 269.681 406.232 270.313 405.51 270.78L398 275.2C397.75 275.382 397.457 275.494 397.149 275.526C396.842 275.557 396.532 275.507 396.25 275.38C395.8 275.12 394.91 274.57 394.46 274.32C394.206 274.141 394.005 273.897 393.877 273.614C393.748 273.331 393.698 273.019 393.73 272.71V254.65C393.775 253.792 394.023 252.958 394.452 252.214C394.881 251.47 395.48 250.838 396.2 250.37V250.37Z" fill="#FAFAFA"/>
<path d="M393.72 254.65V272.71C393.687 273.019 393.737 273.331 393.865 273.615C393.994 273.898 394.196 274.141 394.45 274.32C394.89 274.56 395.56 274.99 396.19 275.32C395.956 275.135 395.773 274.894 395.656 274.62C395.539 274.346 395.492 274.047 395.52 273.75V255.71C395.547 254.852 395.795 254.015 396.24 253.28L394.45 252.22C394.002 252.954 393.75 253.791 393.72 254.65V254.65Z" fill="#E0E0E0"/>
<path d="M405.51 270.83L398 275.2C396.63 275.99 395.53 275.35 395.53 273.78V255.71C395.576 254.853 395.824 254.018 396.253 253.275C396.682 252.531 397.281 251.899 398 251.43L405.52 247.06C406.89 246.27 408 246.91 408 248.49V266.55C407.952 267.409 407.702 268.245 407.269 268.989C406.836 269.733 406.233 270.364 405.51 270.83V270.83Z" fill="#F0F0F0"/>
<path d="M395.76 285.84C395.65 285.838 395.543 285.807 395.448 285.751C395.353 285.695 395.275 285.615 395.22 285.52C395.179 285.449 395.152 285.371 395.142 285.29C395.131 285.209 395.136 285.126 395.158 285.047C395.179 284.968 395.216 284.894 395.266 284.829C395.316 284.765 395.379 284.71 395.45 284.67L400.69 281.67C400.785 281.615 400.863 281.537 400.918 281.442C400.972 281.347 401 281.239 401 281.13V261.32C400.989 261.231 400.996 261.141 401.023 261.056C401.049 260.97 401.093 260.891 401.152 260.824C401.211 260.757 401.284 260.703 401.366 260.667C401.447 260.63 401.536 260.611 401.625 260.611C401.714 260.611 401.803 260.63 401.884 260.667C401.966 260.703 402.038 260.757 402.098 260.824C402.157 260.891 402.201 260.97 402.227 261.056C402.253 261.141 402.261 261.231 402.25 261.32V281.1C402.249 281.43 402.162 281.754 401.997 282.04C401.832 282.326 401.595 282.564 401.31 282.73L396.07 285.73C395.979 285.795 395.872 285.833 395.76 285.84V285.84Z" fill="#263238"/>
<path d="M239.84 388.24L261.09 378.42C261.09 378.42 259.43 358.42 245.4 363.21C231.37 368 239.84 388.24 239.84 388.24Z" fill="#CB2F40"/>
<g opacity="0.5">
<path opacity="0.5" d="M239.84 388.24L261.09 378.42C261.09 378.42 259.43 358.42 245.4 363.21C231.37 368 239.84 388.24 239.84 388.24Z" fill="black"/>
</g>
<path d="M251.53 385.74L247 376.66L257.88 370.36C261.35 368.36 265.95 368.6 271.01 371.52C281.76 377.73 290.47 393.73 290.47 407.27C290.47 414.35 288.08 419.36 284.26 421.63L284.1 421.72L272.95 428.16L268.12 418.58C258.93 411.6 251.88 397.82 251.53 385.74Z" fill="#263238"/>
<path d="M240.18 391.33C240.18 403 246.66 416.51 255.34 423.98C256.669 425.129 258.098 426.156 259.61 427.05C270.36 433.25 279.08 427.31 279.07 413.77C279.07 403.55 274.07 391.9 267.07 384.15L267.01 384.09C264.883 381.703 262.401 379.659 259.65 378.03C248.89 371.86 240.18 377.8 240.18 391.33Z" fill="#37474F"/>
<path d="M259.64 386.23C252.8 382.23 247.26 386.39 247.26 395.42C247.26 404.45 252.8 414.96 259.64 418.91C266.48 422.86 272.02 418.74 272.02 409.72C272.02 400.7 266.48 390.18 259.64 386.23Z" fill="#455A64"/>
<path d="M259.64 394.09C256.09 392.09 253.22 394.17 253.22 398.86C253.22 403.55 256.09 409 259.64 411.05C263.19 413.1 266.07 410.96 266.07 406.28C266.07 401.6 263.19 396.14 259.64 394.09Z" fill="#E0E0E0"/>
<path d="M257.59 394C257.149 393.745 256.674 393.553 256.18 393.43C254.4 393.91 253.18 395.86 253.18 398.86C253.293 402.396 254.557 405.798 256.78 408.55C257.027 408.737 257.284 408.911 257.55 409.07C260.71 410.89 263.26 409 263.26 404.83C263.26 400.66 260.75 395.82 257.59 394Z" fill="#F5F5F5"/>
<path d="M240.18 391.33C240.18 403 246.66 416.51 255.34 423.98C249.319 417.161 245.079 408.957 243 400.1C241.35 392.3 242 381.1 248.67 378.27C255.34 375.44 264.21 381.4 267 384.12C264.873 381.733 262.391 379.689 259.64 378.06C248.89 371.86 240.18 377.8 240.18 391.33Z" fill="#455A64"/>
<path d="M315.32 431.79L296.07 420.67L293.54 419.21L288.69 416.39L286.39 415.05C286.472 414.833 286.506 414.601 286.49 414.37C286.569 414.019 286.6 413.659 286.58 413.3C286.58 398.41 276.13 380.3 263.17 372.86C261.954 372.154 260.687 371.539 259.38 371.02V371.02C258.81 370.8 258.27 370.61 257.73 370.45C247.49 367.35 239.86 373.57 239.86 386.31V388.24L207.86 369.75V223.88L247.63 246.88L282.35 272.45L298.09 349L310.3 366.94L310.95 367.89L318.41 378.83L320.83 408.6L321.43 415.11L321.69 417.79L322.29 424.23L322.57 427.23C322.645 428.111 322.476 428.996 322.081 429.787C321.687 430.579 321.082 431.247 320.333 431.718C319.585 432.188 318.721 432.444 317.837 432.457C316.953 432.47 316.082 432.239 315.32 431.79V431.79Z" fill="#CB2F40"/>
<g opacity="0.15">
<path opacity="0.15" d="M315.32 431.79L296.07 420.67L293.54 419.21L288.69 416.39L286.39 415.05C286.472 414.833 286.506 414.601 286.49 414.37C286.569 414.019 286.6 413.659 286.58 413.3C286.58 398.41 276.13 380.3 263.17 372.86C261.954 372.154 260.687 371.539 259.38 371.02V371.02C258.81 370.8 258.27 370.61 257.73 370.45C247.49 367.35 239.86 373.57 239.86 386.31V388.24L207.86 369.75V223.88L247.63 246.88L282.35 272.45L298.09 349L310.3 366.94L310.95 367.89L318.41 378.83L320.83 408.6L321.43 415.11L321.69 417.79L322.29 424.23L322.57 427.23C322.645 428.111 322.476 428.996 322.081 429.787C321.687 430.579 321.082 431.247 320.333 431.718C319.585 432.188 318.721 432.444 317.837 432.457C316.953 432.47 316.082 432.239 315.32 431.79V431.79Z" fill="black"/>
</g>
<path d="M263.2 274.81V322C263.2 323.74 261.99 324.44 260.49 323.57L221.35 301C220.558 300.485 219.898 299.789 219.426 298.971C218.953 298.152 218.68 297.234 218.63 296.29V246.62C218.63 244.89 219.84 244.19 221.35 245.05L244.88 258.64C246.38 259.51 248.73 261.04 250.12 262.07L260.67 269.82C261.415 270.431 262.024 271.19 262.46 272.049C262.896 272.908 263.148 273.848 263.2 274.81V274.81Z" fill="#455A64"/>
<path d="M275.78 332.36C274.461 331.502 273.364 330.344 272.577 328.982C271.79 327.62 271.335 326.091 271.25 324.52V282.79C271.25 279.9 272.32 278.36 273.64 279.35L276.03 281.14C277.809 282.627 279.07 284.64 279.63 286.89L289.27 336.99C289.66 338.99 288.56 339.74 286.83 338.73L275.78 332.36Z" fill="#455A64"/>
<g opacity="0.15">
<path opacity="0.15" d="M265.19 267.57L249.38 256.05C248.2 255.19 246.21 253.89 244.95 253.17L216.9 237C216.595 236.783 216.236 236.654 215.862 236.625C215.489 236.597 215.114 236.671 214.78 236.84C214.468 237.048 214.217 237.335 214.053 237.673C213.889 238.011 213.819 238.386 213.85 238.76V366C213.891 366.879 214.142 367.735 214.583 368.497C215.023 369.26 215.639 369.905 216.38 370.38L234.79 381C235.174 381.241 235.617 381.373 236.07 381.38C236.346 381.384 236.62 381.326 236.87 381.21C237.208 381.052 237.496 380.803 237.7 380.49C237.924 380.152 238.074 379.77 238.14 379.37C238.8 376.01 240.84 369.99 247.14 367.46C250.443 366.247 254.052 366.142 257.42 367.16V367.16C259.194 367.63 260.915 368.276 262.56 369.09C263.28 369.44 263.94 369.79 264.56 370.09C264.863 370.309 265.22 370.443 265.593 370.479C265.965 370.514 266.341 370.449 266.68 370.29C266.888 370.162 267.062 369.988 267.19 369.78C267.438 369.371 267.56 368.898 267.54 368.42V272.15C267.495 271.264 267.263 270.397 266.858 269.607C266.452 268.818 265.884 268.123 265.19 267.57ZM265.94 369.45C265.693 369.48 265.443 369.427 265.23 369.3V369.3L265.06 369.22C262.394 367.656 259.499 366.523 256.48 365.86C253.25 365.101 249.867 365.317 246.76 366.48C240.7 368.92 238.33 374.3 237.41 377.96C237.29 378.39 237.2 378.77 237.13 379.15C237.109 379.373 237.036 379.588 236.916 379.778C236.796 379.967 236.633 380.126 236.44 380.24C236.253 380.304 236.054 380.322 235.859 380.293C235.664 380.263 235.479 380.187 235.32 380.07L216.9 369.46C216.321 369.076 215.839 368.562 215.492 367.96C215.145 367.358 214.942 366.684 214.9 365.99V238.74C214.88 238.553 214.906 238.365 214.976 238.19C215.045 238.016 215.157 237.861 215.3 237.74C215.404 237.684 215.522 237.657 215.64 237.66C215.903 237.674 216.158 237.757 216.38 237.9L244.43 254.1C245.67 254.81 247.61 256.1 248.76 256.91L264.58 268.44C265.136 268.898 265.592 269.465 265.919 270.107C266.246 270.749 266.437 271.451 266.48 272.17V368.46C266.511 368.642 266.496 368.828 266.437 369.003C266.377 369.178 266.275 369.335 266.14 369.46C266.087 369.487 266.029 369.504 265.97 369.51L265.94 369.45Z" fill="black"/>
</g>
<path d="M423.19 365.87C423.19 365.87 408.68 385.93 377.03 404.87C350.76 420.57 322.13 424.24 322.13 424.24L318.39 378.82L419.45 320.46L423.19 365.87Z" fill="#CB2F40"/>
<g opacity="0.3">
<path opacity="0.3" d="M423.19 365.87C423.19 365.87 408.68 385.93 377.03 404.87C350.76 420.57 322.13 424.24 322.13 424.24L318.39 378.82L419.45 320.46L423.19 365.87Z" fill="black"/>
</g>
<path d="M419.45 320.44C419.45 320.44 404.94 340.51 373.29 359.44C347.02 375.14 318.39 378.81 318.39 378.81L298.13 349L399.21 290.65L419.45 320.44Z" fill="#CB2F40"/>
<path d="M425 359.18C424.82 358.99 424.66 359.02 424.47 359.34C424.47 359.34 409.96 379.4 378.3 398.34C352 414 323.39 417.7 323.39 417.7C311.11 418.82 296.07 405.85 296.07 405.85L298.14 404.34C298.14 404.34 312.4 415.14 319.65 415.14C325.9 415.14 348.24 412.3 378.55 395.14C408.86 377.98 422.55 357.23 422.55 357.23C423.092 357.316 423.602 357.541 424.032 357.883C424.461 358.224 424.794 358.671 425 359.18Z" fill="#37474F"/>
<path d="M424.46 359.34C424.46 359.34 409.94 379.4 378.29 398.34C352.03 414.04 323.39 417.71 323.39 417.71C311.11 418.83 296.07 405.88 296.07 405.88V423.2C296.07 423.2 311.07 436.2 323.39 435.04C323.39 435.04 352.03 431.36 378.29 415.67C409.94 396.75 424.46 376.67 424.46 376.67C427 372.38 425.92 356.77 424.46 359.34Z" fill="#455A64"/>
<path d="M331.77 387.89C336.29 386.82 340.38 389.89 340.9 394.72C341.133 397.092 340.516 399.47 339.158 401.43C337.801 403.389 335.793 404.803 333.49 405.42C332.431 405.686 331.327 405.712 330.257 405.496C329.187 405.281 328.178 404.83 327.304 404.176C326.431 403.521 325.714 402.68 325.206 401.714C324.699 400.748 324.413 399.681 324.37 398.59C323.94 393.75 327.25 389 331.77 387.89Z" fill="white"/>
<path d="M412.19 341.86C409.44 344.6 407.68 350.47 408.25 354.98C408.82 359.49 411.4 360.91 414 358.15C416.6 355.39 418.36 349.52 417.94 345.03C417.52 340.54 414.93 339.12 412.19 341.86Z" fill="white"/>
<path d="M348.63 382C357.369 379.248 365.759 375.489 373.63 370.8C374.88 370.07 375.88 370.64 375.88 372.08V373.91C375.844 374.699 375.621 375.469 375.23 376.155C374.839 376.842 374.29 377.426 373.63 377.86C365.759 382.549 357.369 386.308 348.63 389.06C348.335 389.17 348.017 389.205 347.706 389.16C347.395 389.114 347.099 388.991 346.848 388.802C346.597 388.613 346.398 388.363 346.269 388.076C346.139 387.789 346.085 387.474 346.11 387.16V385.33C346.142 384.585 346.4 383.867 346.85 383.272C347.3 382.677 347.921 382.233 348.63 382Z" fill="#37474F"/>
<path d="M403 352.26V354.09C402.914 355.731 402.198 357.275 401 358.4C395.019 363.408 388.766 368.082 382.27 372.4C381.07 373.19 380.08 372.65 380.08 371.21V369.4C380.133 368.614 380.357 367.85 380.735 367.159C381.113 366.468 381.637 365.868 382.27 365.4C388.765 361.079 395.017 356.406 401 351.4C402.14 350.41 403 350.82 403 352.26Z" fill="#37474F"/>
<path d="M348.63 394.78C357.369 392.032 365.759 388.276 373.63 383.59C374.88 382.86 375.88 383.42 375.88 384.87V386.7C375.839 387.488 375.614 388.256 375.224 388.942C374.833 389.628 374.287 390.213 373.63 390.65C365.756 395.332 357.367 399.087 348.63 401.84C348.335 401.953 348.017 401.99 347.704 401.946C347.391 401.902 347.095 401.779 346.843 401.589C346.591 401.399 346.391 401.148 346.263 400.859C346.135 400.571 346.082 400.254 346.11 399.94V398.11C346.146 397.366 346.406 396.65 346.855 396.056C347.305 395.461 347.923 395.017 348.63 394.78V394.78Z" fill="#37474F"/>
<path d="M403 365.09V366.92C402.912 368.557 402.195 370.098 401 371.22C395.019 376.228 388.766 380.902 382.27 385.22C381.07 386.02 380.08 385.48 380.08 384.03V382.2C380.133 381.414 380.357 380.65 380.735 379.959C381.113 379.268 381.637 378.668 382.27 378.2C388.76 373.873 395.012 369.199 401 364.2C402.14 363.23 403 363.64 403 365.09Z" fill="#37474F"/>
<g opacity="0.15">
<path opacity="0.15" d="M352.39 330.56C338.948 337.826 325.03 344.174 310.73 349.56C310.429 349.657 310.156 349.825 309.933 350.048C309.709 350.271 309.542 350.544 309.444 350.845C309.347 351.145 309.322 351.465 309.371 351.777C309.421 352.089 309.544 352.385 309.73 352.64L309.8 352.74C310.25 353.357 310.861 353.84 311.567 354.134C312.272 354.428 313.044 354.524 313.8 354.41C319.94 353.07 336.54 348.75 357.17 337.66C357.465 337.507 357.724 337.292 357.929 337.03C358.135 336.769 358.281 336.466 358.359 336.142C358.437 335.819 358.444 335.482 358.38 335.156C358.317 334.829 358.183 334.521 357.99 334.25L356.12 331.47C355.713 330.893 355.111 330.483 354.426 330.316C353.74 330.148 353.017 330.235 352.39 330.56Z" fill="black"/>
</g>
<g opacity="0.15">
<path opacity="0.15" d="M395.55 300.64C384.815 309.885 373.313 318.202 361.17 325.5C360.878 325.669 360.625 325.897 360.426 326.169C360.227 326.441 360.087 326.751 360.015 327.081C359.942 327.41 359.939 327.75 360.006 328.081C360.072 328.411 360.206 328.724 360.4 329L362.29 331.8C362.694 332.379 363.3 332.785 363.989 332.939C364.677 333.092 365.398 332.982 366.01 332.63C384.71 321.36 394.71 311.44 399.29 306.04C399.745 305.443 400.008 304.72 400.042 303.97C400.076 303.219 399.88 302.476 399.48 301.84L398.97 301.08C398.795 300.8 398.56 300.563 398.283 300.385C398.005 300.207 397.691 300.093 397.364 300.051C397.037 300.009 396.705 300.04 396.391 300.142C396.077 300.244 395.79 300.414 395.55 300.64Z" fill="black"/>
</g>
<path d="M399.21 290.6C399.21 290.6 382.51 307.39 354.99 323.41C327.47 339.43 298.14 348.94 298.14 348.94L282.34 272.37L345.5 235.92L374.55 219.16L383.41 214.02L399.21 290.6Z" fill="#455A64"/>
<path d="M383.41 214L374.55 219.13L345.5 235.92L282.34 272.37L298.14 348.94L299.22 348.58L299.44 348.51L300.54 348.13L301 348H301.1H301.2L301.95 347.73L303.12 347.32L304.28 346.9L305.04 346.62L306.04 346.25L309.42 344.97L310.18 344.68C312.89 343.63 315.96 342.41 319.29 341.02L322.57 339.63L323.1 339.4L323.7 339.15C324.39 338.83 325.11 338.53 325.83 338.21L326.45 337.94L327.89 337.29L329.54 336.55C330.74 336.01 331.96 335.44 333.19 334.86C334.42 334.28 335.66 333.69 336.91 333.09C337.85 332.63 338.79 332.17 339.73 331.69L342.01 330.55L342.25 330.43L344.58 329.22L344.77 329.12L346.82 328.04L348.46 327.16C349.793 326.447 351.09 325.727 352.35 325L354.94 323.52L357.3 322C357.97 321.61 358.63 321.2 359.3 320.8C359.55 320.65 359.81 320.5 360.05 320.34C360.8 319.89 361.56 319.42 362.29 318.96L362.56 318.79L363.63 318.11C364.1 317.81 364.55 317.51 365.02 317.22L366.35 316.34L367.67 315.48C368.22 315.12 368.77 314.76 369.3 314.39C370.39 313.65 371.45 312.93 372.49 312.2L372.7 312.05L373.9 311.22C375.48 310.1 377 309 378.44 307.94L379.52 307.13L380.52 306.35L381.52 305.57C382.2 305.06 382.85 304.57 383.52 304.06L383.6 304L384.41 303.37L386.26 301.89L387.43 300.96C387.67 300.76 387.9 300.56 388.13 300.38C388.36 300.2 388.59 299.99 388.81 299.82L389.48 299.27C389.478 299.253 389.478 299.237 389.48 299.22L391 298C392.87 296.42 394.44 295 395.68 293.9C395.836 293.739 396.004 293.589 396.18 293.45L396.28 293.35L396.8 292.87C398.27 291.52 399.07 290.72 399.18 290.61L383.41 214ZM349.36 321C349.365 321.02 349.365 321.04 349.36 321.06C349.34 321.215 349.31 321.369 349.27 321.52V321.65C349.22 321.77 349.18 321.9 349.13 322.02C349.111 322.075 349.087 322.129 349.06 322.18C349.008 322.33 348.941 322.474 348.86 322.61C348.594 323.093 348.233 323.518 347.8 323.86C347.658 323.974 347.504 324.071 347.34 324.15C343.62 326.15 339.9 328.09 336.27 329.86L334.36 330.8C332.833 331.527 331.323 332.233 329.83 332.92L327.75 333.92L324.19 335.5C323.6 335.77 323.02 336.02 322.45 336.26L320.76 336.99C318.52 337.99 316.38 338.83 314.36 339.65C313.29 340.09 312.24 340.5 311.24 340.9L309.77 341.47C307.36 342.4 305.24 343.2 303.45 343.85C302.872 344.085 302.228 344.104 301.637 343.904C301.046 343.704 300.547 343.298 300.23 342.76C300.077 342.477 299.966 342.174 299.9 341.86L290.18 293.44C290.04 292.556 290.16 291.65 290.526 290.834C290.891 290.017 291.487 289.324 292.24 288.84L333.24 265.17C333.548 264.96 333.905 264.831 334.277 264.795C334.649 264.76 335.024 264.82 335.366 264.969C335.709 265.117 336.008 265.351 336.236 265.646C336.464 265.942 336.613 266.291 336.67 266.66L346.38 307.2L349.32 319.48L349.37 319.68V319.83C349.38 319.886 349.38 319.944 349.37 320C349.375 320.057 349.375 320.113 349.37 320.17C349.38 320.29 349.38 320.41 349.37 320.53C349.379 320.687 349.376 320.844 349.36 321V321ZM385.48 298.52L384.76 299.13C382.37 301.06 379.65 303.13 376.66 305.4C375.66 306.16 374.59 306.92 373.5 307.7L372.33 308.55C370.74 309.69 369.09 310.83 367.33 312L365.63 313.14C365.06 313.53 364.47 313.91 363.88 314.29C363.29 314.67 362.69 315.08 362.09 315.46C359.94 316.85 357.71 318.24 355.41 319.61C355.108 319.825 354.755 319.958 354.386 319.997C354.018 320.036 353.645 319.98 353.305 319.833C352.964 319.686 352.667 319.454 352.442 319.16C352.217 318.865 352.072 318.517 352.02 318.15L351.95 317.85L349 305.61L339.38 265.17C339.211 264.29 339.312 263.379 339.669 262.557C340.026 261.734 340.622 261.038 341.38 260.56L349.15 256.09L380.78 237.79L382.19 236.99L382.31 236.93C382.612 236.744 382.956 236.637 383.31 236.62C383.664 236.603 384.016 236.675 384.335 236.831C384.653 236.987 384.927 237.22 385.131 237.511C385.335 237.801 385.462 238.138 385.5 238.49L395.17 286.49C395.391 287.966 395.06 289.472 394.24 290.72C394.13 290.89 394.01 291.06 393.89 291.21C393.771 291.347 393.644 291.477 393.51 291.6L393 292.06C392.77 292.28 392.53 292.49 392.29 292.7L390.13 294.58C389.36 295.25 388.51 295.97 387.61 296.72L385.72 298.28L385.49 298.46L385.48 298.52Z" fill="#CB2F40"/>
<g opacity="0.3">
<path opacity="0.3" d="M383.41 214L374.55 219.13L345.5 235.92L282.34 272.37L298.14 348.94L299.22 348.58L299.44 348.51L300.54 348.13L301 348H301.1H301.2L301.95 347.73L303.12 347.32L304.28 346.9L305.04 346.62L306.04 346.25L309.42 344.97L310.18 344.68C312.89 343.63 315.96 342.41 319.29 341.02L322.57 339.63L323.1 339.4L323.7 339.15C324.39 338.83 325.11 338.53 325.83 338.21L326.45 337.94L327.89 337.29L329.54 336.55C330.74 336.01 331.96 335.44 333.19 334.86C334.42 334.28 335.66 333.69 336.91 333.09C337.85 332.63 338.79 332.17 339.73 331.69L342.01 330.55L342.25 330.43L344.58 329.22L344.77 329.12L346.82 328.04L348.46 327.16C349.793 326.447 351.09 325.727 352.35 325L354.94 323.52L357.3 322C357.97 321.61 358.63 321.2 359.3 320.8C359.55 320.65 359.81 320.5 360.05 320.34C360.8 319.89 361.56 319.42 362.29 318.96L362.56 318.79L363.63 318.11C364.1 317.81 364.55 317.51 365.02 317.22L366.35 316.34L367.67 315.48C368.22 315.12 368.77 314.76 369.3 314.39C370.39 313.65 371.45 312.93 372.49 312.2L372.7 312.05L373.9 311.22C375.48 310.1 377 309 378.44 307.94L379.52 307.13L380.52 306.35L381.52 305.57C382.2 305.06 382.85 304.57 383.52 304.06L383.6 304L384.41 303.37L386.26 301.89L387.43 300.96C387.67 300.76 387.9 300.56 388.13 300.38C388.36 300.2 388.59 299.99 388.81 299.82L389.48 299.27C389.478 299.253 389.478 299.237 389.48 299.22L391 298C392.87 296.42 394.44 295 395.68 293.9C395.836 293.739 396.004 293.589 396.18 293.45L396.28 293.35L396.8 292.87C398.27 291.52 399.07 290.72 399.18 290.61L383.41 214ZM349.36 321C349.365 321.02 349.365 321.04 349.36 321.06C349.34 321.215 349.31 321.369 349.27 321.52V321.65C349.22 321.77 349.18 321.9 349.13 322.02C349.111 322.075 349.087 322.129 349.06 322.18C349.008 322.33 348.941 322.474 348.86 322.61C348.594 323.093 348.233 323.518 347.8 323.86C347.658 323.974 347.504 324.071 347.34 324.15C343.62 326.15 339.9 328.09 336.27 329.86L334.36 330.8C332.833 331.527 331.323 332.233 329.83 332.92L327.75 333.92L324.19 335.5C323.6 335.77 323.02 336.02 322.45 336.26L320.76 336.99C318.52 337.99 316.38 338.83 314.36 339.65C313.29 340.09 312.24 340.5 311.24 340.9L309.77 341.47C307.36 342.4 305.24 343.2 303.45 343.85C302.872 344.085 302.228 344.104 301.637 343.904C301.046 343.704 300.547 343.298 300.23 342.76C300.077 342.477 299.966 342.174 299.9 341.86L290.18 293.44C290.04 292.556 290.16 291.65 290.526 290.834C290.891 290.017 291.487 289.324 292.24 288.84L333.24 265.17C333.548 264.96 333.905 264.831 334.277 264.795C334.649 264.76 335.024 264.82 335.366 264.969C335.709 265.117 336.008 265.351 336.236 265.646C336.464 265.942 336.613 266.291 336.67 266.66L346.38 307.2L349.32 319.48L349.37 319.68V319.83C349.38 319.886 349.38 319.944 349.37 320C349.375 320.057 349.375 320.113 349.37 320.17C349.38 320.29 349.38 320.41 349.37 320.53C349.379 320.687 349.376 320.844 349.36 321V321ZM385.48 298.52L384.76 299.13C382.37 301.06 379.65 303.13 376.66 305.4C375.66 306.16 374.59 306.92 373.5 307.7L372.33 308.55C370.74 309.69 369.09 310.83 367.33 312L365.63 313.14C365.06 313.53 364.47 313.91 363.88 314.29C363.29 314.67 362.69 315.08 362.09 315.46C359.94 316.85 357.71 318.24 355.41 319.61C355.108 319.825 354.755 319.958 354.386 319.997C354.018 320.036 353.645 319.98 353.305 319.833C352.964 319.686 352.667 319.454 352.442 319.16C352.217 318.865 352.072 318.517 352.02 318.15L351.95 317.85L349 305.61L339.38 265.17C339.211 264.29 339.312 263.379 339.669 262.557C340.026 261.734 340.622 261.038 341.38 260.56L349.15 256.09L380.78 237.79L382.19 236.99L382.31 236.93C382.612 236.744 382.956 236.637 383.31 236.62C383.664 236.603 384.016 236.675 384.335 236.831C384.653 236.987 384.927 237.22 385.131 237.511C385.335 237.801 385.462 238.138 385.5 238.49L395.17 286.49C395.391 287.966 395.06 289.472 394.24 290.72C394.13 290.89 394.01 291.06 393.89 291.21C393.771 291.347 393.644 291.477 393.51 291.6L393 292.06C392.77 292.28 392.53 292.49 392.29 292.7L390.13 294.58C389.36 295.25 388.51 295.97 387.61 296.72L385.72 298.28L385.49 298.46L385.48 298.52Z" fill="black"/>
</g>
<path d="M290.71 284.76L381.9 232.09C382.488 231.714 382.954 231.176 383.241 230.541C383.529 229.905 383.626 229.2 383.52 228.51L381.86 220.28C381.831 219.996 381.728 219.725 381.561 219.493C381.394 219.261 381.169 219.077 380.909 218.96C380.649 218.843 380.362 218.795 380.078 218.824C379.794 218.852 379.522 218.954 379.29 219.12L288.11 271.79C287.519 272.165 287.051 272.705 286.764 273.343C286.476 273.981 286.381 274.689 286.49 275.38L288.14 283.6C288.169 283.884 288.272 284.156 288.439 284.387C288.606 284.619 288.831 284.803 289.091 284.92C289.351 285.037 289.638 285.085 289.922 285.056C290.206 285.028 290.478 284.926 290.71 284.76Z" fill="#455A64"/>
<path d="M349.3 319.64C349.476 320.506 349.378 321.406 349.019 322.214C348.661 323.022 348.06 323.699 347.3 324.15C333.155 331.743 318.484 338.313 303.4 343.81C303.037 343.956 302.646 344.019 302.256 343.993C301.865 343.968 301.485 343.855 301.145 343.663C300.804 343.471 300.51 343.204 300.286 342.884C300.062 342.563 299.913 342.196 299.85 341.81L299.21 338.62C308.07 332.18 329.59 316.81 346.11 307.27C346.174 307.226 346.241 307.186 346.31 307.15L349.3 319.64Z" fill="#37474F"/>
<path d="M394.28 290.75C394.071 291.088 393.815 291.394 393.52 291.66C381.72 302.16 368.965 311.534 355.42 319.66C355.118 319.875 354.765 320.008 354.396 320.047C354.028 320.086 353.655 320.03 353.315 319.883C352.974 319.736 352.677 319.504 352.452 319.21C352.227 318.915 352.082 318.567 352.03 318.2L349.03 305.63C361.901 298.532 375.297 292.431 389.1 287.38L394.28 290.75Z" fill="#37474F"/>
<path opacity="0.1" d="M387.92 280.36L376.87 274C375.55 273.141 374.452 271.982 373.665 270.618C372.877 269.254 372.424 267.723 372.34 266.15V242.7L380.81 237.8L382.21 236.99C382.25 236.961 382.294 236.937 382.34 236.92L390.34 278.61C390.75 280.58 389.65 281.36 387.92 280.36Z" fill="white"/>
<path opacity="0.1" d="M364.29 247.35V263.59C364.29 265.33 363.08 266.03 361.57 265.16L347.52 257.05L349.19 256.05L364.29 247.35Z" fill="white"/>
<path d="M383.41 214.01L282.34 272.36L247.6 246.83L207.83 223.87L308.9 165.53L348.67 188.49L383.41 214.01Z" fill="#CB2F40"/>
<path d="M272 321.05L279.53 316.68C279.779 316.497 280.074 316.384 280.382 316.354C280.69 316.325 281 316.378 281.28 316.51L283.06 317.57C283.314 317.746 283.516 317.988 283.645 318.27C283.773 318.551 283.824 318.862 283.79 319.17V337.23C283.745 338.088 283.497 338.922 283.068 339.666C282.639 340.41 282.04 341.042 281.32 341.51L273.79 345.88C273.541 346.064 273.247 346.177 272.94 346.209C272.632 346.241 272.321 346.189 272.04 346.06C271.6 345.8 270.7 345.25 270.26 345C270.006 344.821 269.804 344.578 269.675 344.295C269.547 344.011 269.497 343.699 269.53 343.39V325.33C269.576 324.473 269.824 323.638 270.253 322.895C270.682 322.151 271.281 321.519 272 321.05Z" fill="#FAFAFA"/>
<path d="M269.5 325.33V343.4C269.468 343.708 269.518 344.018 269.646 344.3C269.775 344.581 269.976 344.823 270.23 345C270.66 345.24 271.34 345.67 271.96 346C271.726 345.815 271.543 345.574 271.426 345.3C271.309 345.026 271.262 344.727 271.29 344.43V326.39C271.323 325.547 271.567 324.725 272 324L270.2 322.94C269.772 323.666 269.531 324.488 269.5 325.33V325.33Z" fill="#E0E0E0"/>
<path d="M281.29 341.51L273.76 345.88C272.4 346.67 271.29 346.03 271.29 344.46V326.4C271.337 325.541 271.585 324.706 272.014 323.961C272.443 323.216 273.041 322.582 273.76 322.11L281.29 317.74C282.65 316.96 283.76 317.59 283.76 319.17V337.23C283.715 338.088 283.467 338.922 283.038 339.666C282.609 340.41 282.01 341.042 281.29 341.51V341.51Z" fill="#F0F0F0"/>
<path d="M288 344.51C288.738 344.993 289.351 345.643 289.791 346.408C290.231 347.172 290.484 348.029 290.53 348.91C290.53 350.53 289.4 351.19 288 350.38C287.261 349.898 286.647 349.248 286.207 348.484C285.767 347.719 285.515 346.861 285.47 345.98C285.47 344.36 286.6 343.7 288 344.51Z" fill="#37474F"/>
<path d="M279.1 353C278.769 352.996 278.446 352.907 278.16 352.74C277.874 352.578 277.638 352.342 277.474 352.057C277.311 351.772 277.226 351.448 277.23 351.12V332.8C277.219 332.711 277.227 332.621 277.253 332.536C277.279 332.45 277.323 332.371 277.382 332.304C277.441 332.237 277.514 332.183 277.596 332.147C277.677 332.11 277.766 332.091 277.855 332.091C277.944 332.091 278.033 332.11 278.114 332.147C278.196 332.183 278.269 332.237 278.328 332.304C278.387 332.371 278.431 332.45 278.457 332.536C278.483 332.621 278.491 332.711 278.48 332.8V351.14C278.476 351.25 278.503 351.359 278.558 351.454C278.613 351.55 278.693 351.628 278.79 351.68C278.884 351.736 278.991 351.766 279.1 351.766C279.209 351.766 279.316 351.736 279.41 351.68L287.69 346.9C287.761 346.859 287.839 346.832 287.92 346.822C288.001 346.811 288.084 346.817 288.163 346.838C288.242 346.859 288.316 346.896 288.381 346.946C288.445 346.996 288.5 347.059 288.54 347.13C288.621 347.275 288.642 347.446 288.599 347.607C288.556 347.767 288.452 347.905 288.31 347.99L280 352.76C279.724 352.913 279.415 352.995 279.1 353Z" fill="#263238"/>
<path d="M97.58 371.21C97.1637 372.116 96.998 373.118 97.1 374.11C97.4567 375.395 97.6185 376.727 97.58 378.06C97.42 380.06 96.99 380.67 96.84 382.06C96.6217 383.452 96.9244 384.877 97.69 386.06C98.55 387.35 100.47 388.38 104 388.12C106.86 387.91 108.07 386.31 108.07 384.62L97.58 371.21Z" fill="#263238"/>
<path d="M99 369.52C100.8 370.52 103.74 369.35 105.93 368.18L108.23 354.58L98.28 352.37L99 369.52Z" fill="#FFA8A7"/>
<path d="M98.26 367.1C98.1849 367.469 98.1414 367.844 98.13 368.22C98.05 368.88 97.87 369.52 97.74 370.22C97.74 370.39 97.67 370.57 97.64 370.74C97.555 372.074 97.5985 373.414 97.77 374.74C97.7228 376.325 97.5049 377.901 97.12 379.44C96.58 382.25 96.59 384 99.12 385.83C100.394 386.672 101.922 387.043 103.44 386.88C104.67 386.88 106.37 386.55 106.99 385.88C107.505 385.442 107.858 384.843 107.99 384.18C107.99 381.18 106.78 377.83 106.46 374.89C106.346 374.099 106.296 373.299 106.31 372.5C106.38 371.5 106.68 370.5 106.75 369.5C106.817 369.131 106.757 368.75 106.58 368.42C106.407 368.241 106.198 368.101 105.967 368.008C105.736 367.915 105.489 367.871 105.24 367.88C103.94 367.76 102.64 367.68 101.33 367.63C101.176 367.606 101.019 367.613 100.868 367.65C100.716 367.688 100.574 367.756 100.45 367.85C100.21 368.08 100.22 368.47 100.16 368.8C100.1 369.13 99.87 369.52 99.54 369.47C99.4321 369.442 99.3352 369.383 99.262 369.299C99.1888 369.215 99.1427 369.111 99.13 369C99.13 368.78 98.93 367.07 98.93 366.85C98.87 366.87 98.41 366.81 98.26 367.1Z" fill="#37474F"/>
<path d="M108.22 383.67C108.218 383.045 108.053 382.431 107.74 381.89C106.29 379.29 99.01 379.47 96.83 382.2C96.769 382.927 96.9082 383.658 97.2326 384.312C97.5569 384.966 98.054 385.518 98.67 385.91C99.93 386.85 101.92 386.98 103.55 386.91C104.82 386.909 106.061 386.526 107.11 385.81C107.464 385.579 107.752 385.261 107.946 384.886C108.141 384.511 108.235 384.092 108.22 383.67V383.67Z" fill="#455A64"/>
<path d="M117.72 369.92C119.24 373.21 121.63 371.92 124.72 369.78L126.23 350.09L116.69 352.67L117.72 369.92Z" fill="#FFA8A7"/>
<path d="M137.3 377.43C137.479 377.962 137.446 378.541 137.21 379.05C136.98 379.52 134.5 380.92 131.16 380.7C128.677 380.521 126.285 379.686 124.23 378.28C122.941 377.522 121.465 377.141 119.97 377.18C118.31 377.09 116.14 376.26 115.77 375.48C115.584 374.786 115.605 374.052 115.83 373.37L137.3 377.43Z" fill="#263238"/>
<path d="M125.59 367C125.711 367.244 125.818 367.494 125.91 367.75C126.283 368.676 126.885 369.491 127.66 370.12C128.783 370.969 129.997 371.69 131.28 372.27C132.08 372.67 132.94 372.81 133.76 373.13C134.692 373.472 135.586 373.907 136.43 374.43C136.756 374.652 137.023 374.95 137.207 375.299C137.391 375.647 137.488 376.036 137.488 376.43C137.488 376.824 137.391 377.213 137.207 377.561C137.023 377.91 136.756 378.208 136.43 378.43C133.839 379.61 130.909 379.812 128.18 379C126.24 378.45 124.09 376.38 121.54 376.18C119.92 376.05 116.86 375.6 115.82 374.37C115.49 372.58 115.95 372.09 116.37 370.6C116.596 369.757 116.734 368.892 116.78 368.02C116.78 367.56 116.55 366.23 117.52 366.11V367.11C117.52 367.11 117.69 367.45 118.69 367.67C119.01 367.74 119.25 368.17 119.41 368.57C119.57 368.97 119.66 369.26 119.98 369.27C120.092 369.262 120.2 369.224 120.292 369.158C120.384 369.093 120.456 369.004 120.5 368.9C120.585 368.692 120.655 368.478 120.71 368.26C120.855 367.921 121.071 367.616 121.343 367.368C121.616 367.119 121.939 366.933 122.29 366.82C122.873 366.651 123.474 366.55 124.08 366.52C124.55 366.47 124.93 366.29 125.33 366.69C125.43 366.781 125.518 366.885 125.59 367V367Z" fill="#37474F"/>
<path d="M116.59 369.54C116.52 369.91 116.45 370.27 116.35 370.63C115.93 372.12 115.47 372.63 115.8 374.4C116.6 375.34 118.59 375.83 120.2 376.06C120.75 373 118.84 370.71 116.59 369.54Z" fill="#455A64"/>
<path d="M99.71 291.37C99.29 304.12 99.47 309.23 99.52 332.68C98.4357 336.276 97.8568 340.005 97.8 343.76C97.64 349.63 98.26 361.76 98.26 361.76C98.26 361.76 103.12 364.76 107.26 362.38C107.26 362.38 110.56 344.53 111.83 336.38C112.94 329.19 114.08 318.67 114.08 318.67L115.67 333.62C115.217 337.389 115.126 341.193 115.4 344.98C115.67 348.82 116.72 362.36 116.72 362.36C116.72 362.36 121.12 365.43 125.72 362.97C125.72 362.97 127.88 336.03 127.95 332.54C128.02 328.54 126.47 288.13 126.47 288.13L99.71 291.37Z" fill="#455A64"/>
<path d="M114.05 318.64L116.46 304.72C116.46 304.72 121.69 304.26 124.59 301.34C124.59 301.34 124.07 304.21 117.49 305.92L115.08 319.92L115.64 333.55L114.05 318.64Z" fill="#263238"/>
<path d="M136.49 374.35C135.737 373.942 134.947 373.608 134.13 373.35C132.661 373.46 131.29 374.133 130.305 375.228C129.319 376.324 128.795 377.757 128.84 379.23C131.373 379.929 134.072 379.699 136.45 378.58C136.785 378.34 137.059 378.024 137.249 377.658C137.439 377.293 137.54 376.887 137.544 376.475C137.548 376.063 137.454 375.656 137.271 375.286C137.088 374.917 136.82 374.596 136.49 374.35V374.35Z" fill="#455A64"/>
<path d="M118.12 258.7C120.37 258.64 124.57 258.59 127.49 262.37C129.55 265.03 135.18 271.44 138.35 275.65C140.6 273.42 146.04 268.02 146.95 266.42C147.807 264.921 148.51 263.34 149.05 261.7C149.401 260.744 149.659 259.756 149.82 258.75C150.027 257.511 150.087 256.253 150 255C150 253.88 151.66 254.49 152.26 256.29C152.556 257.286 152.695 258.322 152.67 259.36L155.4 258.11C156.4 257.68 159.53 256.66 159.79 258.42C159.761 258.818 159.788 259.219 159.87 259.61C159.965 259.773 160.076 259.927 160.2 260.07C160.407 260.356 160.534 260.692 160.57 261.043C160.605 261.394 160.546 261.749 160.4 262.07C160.243 262.35 160.177 262.671 160.21 262.99C160.274 263.32 160.274 263.66 160.21 263.99C160.097 264.243 159.96 264.484 159.8 264.71C159.642 265.023 159.541 265.362 159.5 265.71C159.462 266.054 159.374 266.391 159.24 266.71C158.88 267.48 157.94 267.64 157.24 267.88C156.127 268.224 155.032 268.625 153.96 269.08C152.2 270.19 147.33 278.53 142.47 283.84C140.8 285.66 139.32 286.79 137.78 286.55C136.53 286.5 135.02 285.33 133.57 284.01C128.94 279.83 121.46 272.01 121.46 272.01C118.34 268.22 117.7 261.27 118.12 258.7Z" fill="#FFA8A7"/>
<path d="M118.12 258.7C120.286 258.404 122.491 258.751 124.46 259.7C126.46 260.7 126.86 261.33 128.75 263.55C130.64 265.77 133.27 269.11 133.27 269.11C133.27 269.11 131.78 275.43 125.63 277L117.53 267.59L118.12 258.7Z" fill="#455A64"/>
<path d="M153.89 259.59C152.89 259.9 152.66 260.59 152.7 261.95C152.7 262.78 152.49 264.32 151.59 264.95C152.024 264.899 152.432 264.718 152.76 264.43C153.19 263.99 153.3 263.94 153.54 264.19C153.722 264.351 153.937 264.471 154.17 264.54C154.018 264.717 153.927 264.938 153.911 265.17C153.894 265.403 153.954 265.634 154.08 265.83C154.52 266.54 156.46 266.54 158.08 265.7C158.08 265.7 155.5 266.53 154.89 265.7C154.28 264.87 155.65 263.84 156.67 263.55C156.67 263.55 154.17 264.17 153.78 263.36C153.39 262.55 154.42 261.91 155.89 261.52C155.89 261.52 153.83 261.91 153.47 261.22C153.329 260.944 153.294 260.626 153.371 260.325C153.449 260.025 153.633 259.764 153.89 259.59V259.59Z" fill="#F28F8F"/>
<path d="M126 268.44C125.44 264.35 124.9 258.85 118.56 258.6L110.32 258.21C108.32 258.73 99.32 261.34 99.32 261.34V274.34C99.32 274.34 99.62 279.77 99.99 286.62C99.99 286.62 99.25 294.62 99.32 297.73C105.18 301.44 120.73 300.38 126.91 296.65C127.2 291 126.59 272.49 126 268.44Z" fill="#CB2F40"/>
<path d="M115.89 245.22L103 244.55C100.55 246.49 96 250.55 96 251.66V252.43C95.9914 252.459 95.9914 252.491 96 252.52C96.47 253.38 98.13 253.88 100.69 253.87C103.69 253.87 108.44 253.48 109.69 252.39C111.52 250.74 115.9 245.95 115.9 245.95H115.25L115.89 245.22Z" fill="#CB2F40"/>
<path opacity="0.2" d="M115.89 245.22L103 244.55C100.55 246.49 96 250.55 96 251.66V252.43C95.9914 252.459 95.9914 252.491 96 252.52C96.47 253.38 98.13 253.88 100.69 253.87C103.69 253.87 108.44 253.48 109.69 252.39C111.52 250.74 115.9 245.95 115.9 245.95H115.25L115.89 245.22Z" fill="black"/>
<path d="M103 245.27C100.43 247.27 95.57 251.66 96.05 252.52C96.53 253.38 98.18 253.88 100.74 253.87C103.74 253.87 108.49 253.48 109.74 252.39C111.57 250.74 115.95 245.95 115.95 245.95L103 245.27Z" fill="#CB2F40"/>
<path opacity="0.4" d="M103 245.27C100.43 247.27 95.57 251.66 96.05 252.52C96.53 253.38 98.18 253.88 100.74 253.87C103.74 253.87 108.49 253.48 109.74 252.39C111.57 250.74 115.95 245.95 115.95 245.95L103 245.27Z" fill="black"/>
<path d="M103 245.27C103 245.65 104.3 246.4 104.3 246.4L103.88 244.14L103 245.27Z" fill="#CB2F40"/>
<path opacity="0.3" d="M103 245.27C103 245.65 104.3 246.4 104.3 246.4L103.88 244.14L103 245.27Z" fill="black"/>
<path d="M123.35 236.81C122.723 235.65 121.832 234.654 120.75 233.9C118.84 232.58 116.37 232.37 114.05 232.46C112.57 232.487 111.1 232.712 109.68 233.13C108.334 233.541 107.105 234.268 106.098 235.251C105.091 236.234 104.334 237.444 103.89 238.78C103.347 240.434 103.175 242.187 103.384 243.914C103.593 245.642 104.179 247.303 105.1 248.78C105.91 250.05 106.43 251.43 107.1 252.78C107.67 253.89 108.1 254.78 108.1 254.78L107.91 251.27L111.25 250.98C112.211 250.818 113.187 250.764 114.16 250.82C115.075 250.864 115.975 250.58 116.7 250.02C118.28 249.014 119.787 247.898 121.21 246.68C122.137 245.938 122.955 245.07 123.64 244.1C123.799 243.875 123.939 243.638 124.06 243.39C124.281 242.971 124.43 242.518 124.5 242.05C124.616 241.39 124.647 240.718 124.59 240.05C124.469 239.363 124.271 238.693 124 238.05C123.806 237.625 123.589 237.211 123.35 236.81Z" fill="#263238"/>
<path d="M114.68 239.71C113.921 239.609 113.169 239.459 112.43 239.26H112.22C111.947 240.094 111.461 240.843 110.811 241.432C110.16 242.021 109.367 242.431 108.51 242.62C108.778 244.018 108.812 245.451 108.61 246.86C108.555 247.163 108.446 247.454 108.29 247.72C108.206 247.848 108.096 247.956 107.966 248.037C107.837 248.118 107.692 248.17 107.54 248.19C107.13 248.19 106.96 247.97 106.83 247.65C106.653 247.238 106.446 246.841 106.21 246.46C106.112 246.291 105.991 246.136 105.85 246C105.616 245.753 105.323 245.569 104.999 245.466C104.675 245.364 104.329 245.346 103.996 245.414C103.662 245.482 103.352 245.634 103.094 245.855C102.835 246.077 102.638 246.361 102.52 246.68C102.2 247.663 102.25 248.728 102.661 249.677C103.072 250.625 103.815 251.391 104.75 251.83C107.32 252.54 107.87 250.83 107.87 250.83L108.37 259.98C109.76 261.43 115.04 263.43 116.56 265.15C117.24 263.98 119.19 261.1 116.62 259.47L116.52 256.68C117.658 256.822 118.808 256.842 119.95 256.74C121.81 256.39 122.73 254.82 123.23 252.74C124.03 249.46 123.93 243.22 123.68 240.74C123.61 239.855 123.48 238.977 123.29 238.11C123.37 238.36 121.53 239.11 121.29 239.11C120.461 239.389 119.601 239.57 118.73 239.65C117.733 239.75 116.731 239.787 115.73 239.76C115.379 239.763 115.029 239.746 114.68 239.71V239.71Z" fill="#FFA8A7"/>
<path d="M116.52 256.6C114.588 256.295 112.687 255.816 110.84 255.17C109.97 254.748 109.246 254.076 108.76 253.24C109.01 254.083 109.425 254.868 109.98 255.55C111.09 256.88 116.55 257.48 116.55 257.48L116.52 256.6Z" fill="#F28F8F"/>
<path d="M114.73 245.75C114.73 245.903 114.685 246.053 114.6 246.181C114.515 246.309 114.394 246.409 114.253 246.469C114.112 246.528 113.956 246.545 113.805 246.516C113.654 246.488 113.515 246.415 113.406 246.308C113.296 246.201 113.22 246.064 113.188 245.914C113.155 245.764 113.168 245.608 113.224 245.465C113.28 245.322 113.377 245.199 113.502 245.111C113.628 245.023 113.777 244.974 113.93 244.97C114.034 244.967 114.138 244.986 114.235 245.024C114.332 245.062 114.42 245.119 114.495 245.191C114.569 245.264 114.628 245.351 114.669 245.447C114.709 245.543 114.73 245.646 114.73 245.75V245.75Z" fill="#263238"/>
<path d="M113.68 241.92L111.68 242.51C111.605 242.245 111.636 241.961 111.766 241.718C111.897 241.475 112.117 241.293 112.38 241.21C112.512 241.164 112.652 241.147 112.791 241.158C112.93 241.17 113.065 241.21 113.187 241.277C113.31 241.344 113.417 241.436 113.502 241.546C113.587 241.657 113.647 241.784 113.68 241.92V241.92Z" fill="#263238"/>
<path d="M115 251.19L117.88 252.19C117.823 252.382 117.728 252.56 117.601 252.715C117.474 252.869 117.318 252.997 117.141 253.09C116.964 253.183 116.77 253.24 116.57 253.257C116.371 253.275 116.17 253.252 115.98 253.19C115.586 253.054 115.261 252.767 115.078 252.392C114.894 252.017 114.866 251.585 115 251.19V251.19Z" fill="#B16668"/>
<path d="M115.34 251.79C115.214 251.79 115.089 251.81 114.97 251.85C114.998 252.14 115.106 252.416 115.283 252.648C115.46 252.879 115.698 253.057 115.97 253.16C116.175 253.232 116.394 253.256 116.61 253.23C116.615 253.193 116.615 253.157 116.61 253.12C116.613 252.777 116.482 252.446 116.245 252.197C116.008 251.949 115.683 251.803 115.34 251.79V251.79Z" fill="#F28F8F"/>
<path d="M123 242.35L121.13 241.64C121.226 241.401 121.411 241.208 121.646 241.102C121.88 240.996 122.147 240.984 122.39 241.07C122.514 241.114 122.629 241.182 122.727 241.27C122.825 241.358 122.904 241.464 122.961 241.583C123.018 241.702 123.05 241.831 123.057 241.963C123.064 242.094 123.044 242.226 123 242.35V242.35Z" fill="#263238"/>
<path d="M110.86 243.09L104.31 245.34C104.676 245.341 105.036 245.428 105.362 245.593C105.689 245.757 105.972 245.996 106.19 246.29L110.83 244.53L110.86 243.09Z" fill="#37474F"/>
<path d="M121.88 245.62C121.878 245.773 121.831 245.921 121.746 246.047C121.66 246.174 121.539 246.272 121.398 246.33C121.257 246.389 121.102 246.404 120.952 246.375C120.803 246.346 120.665 246.274 120.555 246.168C120.446 246.061 120.371 245.925 120.338 245.776C120.305 245.627 120.317 245.472 120.372 245.329C120.427 245.187 120.522 245.064 120.646 244.975C120.77 244.886 120.918 244.836 121.07 244.83C121.175 244.829 121.279 244.848 121.377 244.887C121.474 244.926 121.563 244.984 121.639 245.057C121.714 245.131 121.774 245.218 121.815 245.315C121.857 245.411 121.879 245.515 121.88 245.62V245.62Z" fill="#263238"/>
<path d="M125.4 242.77L124.98 242.72C123.548 242.551 122.097 242.625 120.69 242.94C119.32 243.39 118.83 243.87 118.07 243.89C117.31 243.91 116.76 243.44 115.31 243.04C113.797 242.793 112.253 242.793 110.74 243.04C110.58 243.04 110.42 243.04 110.28 243.1C110.117 243.151 109.976 243.256 109.879 243.398C109.783 243.539 109.738 243.709 109.75 243.88C109.797 244.214 109.947 244.525 110.18 244.77C110.245 244.882 110.292 245.004 110.32 245.13C110.421 245.966 110.591 246.792 110.83 247.6C110.968 247.927 111.161 248.228 111.4 248.49C111.493 248.581 111.594 248.665 111.7 248.74L111.87 248.86C112.031 248.958 112.202 249.038 112.38 249.1H112.46H112.6H112.74C112.888 249.131 113.039 249.151 113.19 249.16H113.63C114.289 249.201 114.944 249.041 115.509 248.699C116.073 248.358 116.52 247.852 116.79 247.25C117.28 246.3 117.18 244.98 118.05 244.96H118.21C118.84 245.1 118.74 246.32 119.13 247.19C119.278 247.537 119.481 247.857 119.73 248.14C119.772 248.192 119.819 248.238 119.87 248.28L119.95 248.35C119.972 248.378 119.999 248.402 120.03 248.42L120.1 248.47L120.18 248.53H120.24H120.29C120.522 248.66 120.771 248.757 121.03 248.82H121.1C121.399 248.884 121.705 248.911 122.01 248.9C122.587 248.924 123.157 248.765 123.64 248.448C124.123 248.13 124.493 247.669 124.7 247.13C124.96 246.314 125.154 245.478 125.28 244.63C125.31 244.508 125.368 244.395 125.45 244.3C125.674 244.04 125.816 243.72 125.86 243.38C125.89 243.15 125.64 242.79 125.4 242.77ZM116.32 246.45C116.213 246.94 115.982 247.394 115.65 247.77C115.382 248.039 115.059 248.249 114.704 248.385C114.349 248.521 113.97 248.581 113.59 248.56C113.205 248.596 112.818 248.53 112.467 248.368C112.116 248.207 111.813 247.956 111.59 247.64L111.53 247.54C111.48 247.45 111.48 247.45 111.43 247.36C111.427 247.337 111.427 247.313 111.43 247.29V247.22C111.428 247.203 111.428 247.187 111.43 247.17C111.426 247.137 111.426 247.103 111.43 247.07V247.07C111.43 246.98 111.36 246.89 111.33 246.8C111.33 246.8 111.33 246.69 111.33 246.64C111.303 246.552 111.283 246.461 111.27 246.37V246.27C111.13 245.62 110.99 244.33 111.27 244.03C112.045 243.556 112.965 243.378 113.86 243.53H114.01C114.22 243.53 114.43 243.59 114.64 243.63L114.89 243.69C115.101 243.74 115.308 243.803 115.51 243.88L115.7 243.96L115.9 244.06H115.98C116.138 244.145 116.278 244.26 116.39 244.4C116.608 245.07 116.584 245.796 116.32 246.45V246.45ZM124.49 246.02C124.432 246.453 124.28 246.867 124.045 247.235C123.81 247.603 123.498 247.915 123.13 248.15C122.816 248.298 122.476 248.383 122.13 248.4C121.726 248.443 121.318 248.372 120.953 248.195C120.587 248.018 120.278 247.743 120.06 247.4V247.4V247.34V247.27C120.048 247.232 120.031 247.195 120.01 247.16V247.04V246.98C120.01 246.98 120.01 246.98 120.01 246.93C120.01 246.88 120.01 246.93 120.01 246.93C119.955 246.774 119.915 246.613 119.89 246.45C119.7 245.792 119.728 245.091 119.97 244.45C120.61 243.879 121.416 243.528 122.27 243.45L122.92 243.39H123.48H123.66L123.98 243.44H124.05H124.11H124.18H124.27L124.43 243.5C124.557 243.551 124.672 243.625 124.77 243.72C124.83 244.06 124.64 245.36 124.49 246V246.02Z" fill="#263238"/>
<path d="M117.81 245.08L117.96 250.53L120.96 249.65L118.16 245C118.039 244.999 117.919 245.027 117.81 245.08Z" fill="#F28F8F"/>
<path d="M102.37 242.15C102.418 243.238 102.627 244.313 102.99 245.34C103.196 244.997 103.452 244.687 103.75 244.42C105.447 242.946 107.39 241.781 109.49 240.98C114.268 238.955 119.598 238.641 124.58 240.09C124.483 239.158 124.261 238.243 123.92 237.37C122.17 233.09 118.77 230.9 113.43 231.56C107.17 232.35 102.07 235.94 102.37 242.15Z" fill="#CB2F40"/>
<path d="M113.77 238.08C115.797 237.49 117.919 237.297 120.02 237.51C120.521 237.074 120.952 236.565 121.3 236C121.79 235.19 121.6 234.17 121.11 234C120.62 233.83 120.61 234.43 118.78 235.38C119.013 234.784 119.055 234.131 118.9 233.51C118.58 232.77 117.97 234.13 116.62 235.03C115.27 235.93 113.91 236.41 113.77 238.08Z" fill="#263238"/>
<path d="M116.56 265.07C115.56 264.44 113.34 263.35 112.2 264.56C111.06 265.77 110.46 266.12 109.71 265.9C108.96 265.68 106.59 263.24 105.71 261.9C104.71 260.37 104.95 259.75 104.95 259.75L106.82 257.29C107.34 256.6 107.51 256.52 108.17 256.47L108.26 258.29C108.336 258.738 108.5 259.166 108.742 259.551C108.984 259.935 109.299 260.268 109.67 260.53C111.53 261.8 115.19 262.14 116.56 265.07Z" fill="#455A64"/>
<path d="M116.56 265.07C117.17 264.5 118.56 263.07 119.56 263.38C120.56 263.69 121.02 264.27 121.04 263.73C120.719 262.428 120.16 261.198 119.39 260.1C118.719 259.043 117.748 258.21 116.6 257.71L116.66 259.39C116.66 259.39 117.86 260.91 117.72 261.82C117.58 262.73 116.68 264.18 116.56 265.07Z" fill="#455A64"/>
<path d="M142.64 280.67L120.93 284.39L112.35 310.16L133.03 306.08L142.64 280.67Z" fill="#263238"/>
<path opacity="0.15" d="M124.16 299.79C123.926 300.642 123.47 301.416 122.84 302.034C122.209 302.652 121.426 303.093 120.57 303.31C118.635 303.675 116.638 303.509 114.79 302.83L115.51 300.68L124.16 299.79Z" fill="black"/>
<path opacity="0.15" d="M136.09 283.93L136.34 283.14C136.47 282.7 135.23 282.57 133.56 282.85L130.36 283.39C128.69 283.67 127.23 284.25 127.09 284.69L126.85 285.48L136.09 283.93Z" fill="black"/>
<path d="M137.83 281C137.91 280.73 137.42 280.61 136.72 280.74L135.45 280.97C135.45 280.97 135.97 279.25 133.17 279.62C132.426 279.664 131.706 279.899 131.08 280.304C130.455 280.709 129.945 281.269 129.6 281.93L128.24 282.19C127.651 282.242 127.1 282.504 126.69 282.93L126.49 283.42L137.67 281.51C137.67 281.51 137.74 281.28 137.83 281Z" fill="#CB2F40"/>
<path opacity="0.3" d="M137.83 281C137.91 280.73 137.42 280.61 136.72 280.74L135.45 280.97C135.45 280.97 135.97 279.25 133.17 279.62C132.426 279.664 131.706 279.899 131.08 280.304C130.455 280.709 129.945 281.269 129.6 281.93L128.24 282.19C127.651 282.242 127.1 282.504 126.69 282.93L126.49 283.42L137.67 281.51C137.67 281.51 137.74 281.28 137.83 281Z" fill="black"/>
<path d="M127.22 284.77C127.33 284.41 128.37 283.95 129.67 283.64V283.52C129.78 283.13 129.67 282.89 128.84 283.02V282.71L136.58 281.44L136.24 281.75C135.24 281.91 134.79 282 134.58 282.68L134.53 282.83C135.74 282.72 136.53 282.83 136.45 283.23L136.2 284.02L127 285.57L127.22 284.77Z" fill="#CB2F40"/>
<path opacity="0.4" d="M127.22 284.77C127.33 284.41 128.37 283.95 129.67 283.64V283.52C129.78 283.13 129.67 282.89 128.84 283.02V282.71L136.58 281.44L136.24 281.75C135.24 281.91 134.79 282 134.58 282.68L134.53 282.83C135.74 282.72 136.53 282.83 136.45 283.23L136.2 284.02L127 285.57L127.22 284.77Z" fill="black"/>
<path d="M117.09 295.93C119.71 296.88 122.66 296.64 125.41 296.73C125.67 296.73 125.99 296.73 126.1 297.02C126.128 297.135 126.121 297.257 126.078 297.368C126.035 297.479 125.959 297.574 125.86 297.64C125.66 297.772 125.479 297.93 125.32 298.11C125.11 298.42 125.19 298.83 125.13 299.2C124.986 299.735 124.686 300.215 124.27 300.58C123.872 301.057 123.407 301.475 122.89 301.82C120.964 302.739 118.787 302.996 116.7 302.55C115.408 302.268 114.145 301.863 112.93 301.34C111.77 300.88 104.74 298.62 103.93 298.34C97.73 296.01 89.19 293.13 88.75 290.16C88.31 287.19 90.88 277.41 92.18 269.9C93.42 262.77 96.07 261.9 100.09 261.17C101.487 263.174 102.31 265.521 102.47 267.958C102.631 270.396 102.122 272.83 101 275L98.39 286.59C102.461 289.218 106.671 291.624 111 293.8C111.831 293.94 112.684 293.868 113.48 293.59C114.954 293.15 116.506 293.03 118.03 293.24" fill="#FFA8A7"/>
<path d="M100.24 261.08C96 261.56 94 262.6 93 266C92 269.4 90.37 277.48 90.37 277.48C93.13 280.03 96.88 280.48 100.02 280.54L101.43 274.87C102.47 272.6 104.37 266.05 100.24 261.08Z" fill="#455A64"/>
</svg>
